HIERARCHY
ROOT root
{
	OFFSET 0.000000 0.000000 0.000000
	CHANNELS 6 Xposition Yposition Zposition Zrotation Yrotation Xrotation
	JOINT lhip
	{
		OFFSET 0.058581 -0.082280 -0.017664
		CHANNELS 3 Zrotation Yrotation Xrotation
		JOINT lknee
		{
			OFFSET 0.043451 -0.386469 0.008037
			CHANNELS 3 Zrotation Yrotation Xrotation
			JOINT lankle
			{
				OFFSET -0.014790 -0.426874 -0.037428
				CHANNELS 3 Zrotation Yrotation Xrotation
				JOINT ltoe
				{
					OFFSET 0.041054 -0.060286 0.122042
					CHANNELS 3 Zrotation Yrotation Xrotation
					End Site
					{
						OFFSET 0.000000 0.000000 0.000000
					}
				}
			}
		}
	}
	JOINT rhip
	{
		OFFSET -0.060310 -0.090513 -0.013543
		CHANNELS 3 Zrotation Yrotation Xrotation
		JOINT rknee
		{
			OFFSET -0.043257 -0.383688 -0.004843
			CHANNELS 3 Zrotation Yrotation Xrotation
			JOINT rankle
			{
				OFFSET 0.019056 -0.420046 -0.034562
				CHANNELS 3 Zrotation Yrotation Xrotation
				JOINT rtoe
				{
					OFFSET -0.034840 -0.062106 0.130323
					CHANNELS 3 Zrotation Yrotation Xrotation
					End Site
					{
						OFFSET 0.000000 0.000000 0.000000
					}
				}
			}
		}
	}
	JOINT lowerback
	{
		OFFSET 0.004439 0.124404 -0.038385
		CHANNELS 3 Zrotation Yrotation Xrotation
		JOINT upperback
		{
			OFFSET 0.004488 0.137956 0.026820
			CHANNELS 3 Zrotation Yrotation Xrotation
			JOINT chest
			{
				OFFSET -0.002265 0.056032 0.002855
				CHANNELS 3 Zrotation Yrotation Xrotation
				JOINT lowerneck
				{
					OFFSET -0.013390 0.211636 -0.033468
					CHANNELS 3 Zrotation Yrotation Xrotation
					JOINT upperneck
					{
						OFFSET 0.010113 0.088937 0.050410
						CHANNELS 3 Zrotation Yrotation Xrotation
						End Site
						{
							OFFSET 0.000000 0.000000 0.000000
						}
					}
				}
				JOINT lclavicle
				{
					OFFSET 0.071702 0.114000 -0.018898
					CHANNELS 3 Zrotation Yrotation Xrotation
					JOINT lshoulder
					{
						OFFSET 0.122921 0.045205 -0.019046
						CHANNELS 3 Zrotation Yrotation Xrotation
						JOINT lelbow
						{
							OFFSET 0.255332 -0.015649 -0.022946
							CHANNELS 3 Zrotation Yrotation Xrotation
							JOINT lwrist
							{
								OFFSET 0.265709 0.012698 -0.007375
								CHANNELS 3 Zrotation Yrotation Xrotation
								End Site
								{
									OFFSET 0.000000 0.000000 0.000000
								}
							}
						}
					}
				}
				JOINT rclavicle
				{
					OFFSET -0.082954 0.112472 -0.023707
					CHANNELS 3 Zrotation Yrotation Xrotation
					JOINT rshoulder
					{
						OFFSET -0.113228 0.046853 -0.008472
						CHANNELS 3 Zrotation Yrotation Xrotation
						JOINT relbow
						{
							OFFSET -0.260127 -0.014369 -0.031269
							CHANNELS 3 Zrotation Yrotation Xrotation
							JOINT rwrist
							{
								OFFSET -0.269108 0.006794 -0.006027
								CHANNELS 3 Zrotation Yrotation Xrotation
								End Site
								{
									OFFSET 0.000000 0.000000 0.000000
								}
							}
						}
					}
				}
			}
		}
	}
}
MOTION
Frames: 16
Frame Time: 0.033333
0.415985 0.227328 1.025185 89.630339 -0.429100 91.585807 -5.175062 -3.519375 0.260985 -0.378929 -0.607586 -1.167076 10.854919 26.046116 -18.946332 0.000000 -0.000000 0.000000 1.313488 7.172526 -22.764321 -3.624357 -8.825053 32.310494 3.030412 -17.364892 -11.377665 0.000000 -0.000000 0.000000 -3.225781 0.015990 8.171434 -2.280709 3.517720 -7.513885 0.147292 -0.230646 0.738530 2.430328 -4.710529 15.028941 7.179559 3.977365 4.981559 -18.874188 5.362433 2.011900 -53.093914 -16.555071 4.422137 24.020208 -33.672591 -10.948963 -4.789744 0.264441 -9.282762 14.483039 -5.071645 -1.020271 66.741179 2.620130 12.581312 -7.322666 8.786361 -2.302053 18.819960 -2.573506 -13.702520 
0.442432 0.225380 1.022532 89.547776 0.032807 92.130624 -4.761698 -2.708288 1.151588 -0.020865 -0.325811 -0.418512 9.293640 25.076468 -21.391855 0.000000 -0.000000 0.000000 1.659270 7.394851 -23.946833 -4.714640 -8.172792 21.629274 3.701627 -16.627474 -12.112575 0.000000 -0.000000 0.000000 -2.971957 -0.045958 7.632394 -2.030396 3.602831 -7.180308 0.722251 -0.147707 0.669008 2.235341 -4.836431 15.483973 7.507602 4.168462 4.176514 -18.261282 5.312285 2.125287 -53.370448 -17.279688 4.362576 24.705469 -35.657546 -10.913455 -5.390534 0.314556 -9.673853 14.441778 -4.817402 -0.635190 66.598779 2.943519 11.996361 -7.922469 7.954701 -3.248601 19.919242 -2.507799 -14.282853 
0.468765 0.222607 1.017826 89.873874 -0.084999 93.431001 -4.641838 -2.155672 0.752909 0.160177 -0.452002 0.885236 9.055311 24.885536 -22.689340 0.000000 -0.000000 0.000000 1.819149 6.712302 -25.230049 -5.987722 -5.518387 10.370165 4.058587 -15.703621 -12.426010 0.000000 -0.000000 0.000000 -3.220255 -0.226575 6.743341 -1.910706 3.456010 -7.376721 1.269564 -0.496703 0.779367 1.909184 -4.916259 15.473797 7.850435 4.644546 3.561138 -17.736582 6.168465 2.188590 -53.461637 -18.283439 4.201137 24.597923 -37.179584 -9.913756 -5.677525 0.646447 -11.255848 14.511391 -5.484105 -0.249113 66.489826 3.815584 11.800124 -8.389366 7.267525 -3.169543 20.674548 -3.094181 -13.917516 
0.497263 0.218955 1.012467 90.437953 -0.167465 95.078032 -4.336396 -1.384964 0.046619 -0.013258 -1.322523 2.435117 8.845247 24.700908 -24.572242 0.000000 -0.000000 0.000000 2.142702 5.348780 -26.381156 -7.094930 -1.156412 0.897653 4.169533 -15.614960 -11.498396 0.000000 -0.000000 0.000000 -3.476050 -0.386848 4.347278 -1.466503 3.248036 -6.680022 1.681456 -0.903228 1.046506 1.529960 -5.099260 15.326902 7.994831 5.290989 3.612385 -17.398968 6.862723 2.477968 -53.608134 -18.948225 3.958741 24.187326 -38.194872 -8.735296 -4.789638 1.195404 -12.896968 14.853869 -5.848375 0.237392 65.905674 4.702713 11.754124 -8.551716 6.408159 -3.358057 21.494398 -3.303552 -13.980855 
0.524155 0.214652 1.006862 92.390117 -0.270991 96.337189 -3.811968 -1.308810 -0.654166 0.245217 -1.886915 4.656120 8.135283 23.724920 -26.509394 0.000000 -0.000000 0.000000 1.605587 4.590152 -27.603069 -7.765975 0.139227 -3.659470 5.040444 -15.025635 -11.277667 0.000000 -0.000000 0.000000 -3.463711 -0.927368 3.451919 -0.957710 2.581252 -6.732957 1.828661 -1.651430 1.523998 1.765832 -5.020530 14.224701 7.592154 5.195897 3.260382 -17.139970 7.524271 2.762905 -53.874280 -19.577887 3.934451 23.748428 -38.458767 -7.693338 -4.255941 -0.125430 -13.181620 15.190612 -6.941467 -0.422804 65.410903 5.511110 11.693013 -8.355883 5.239933 -2.893432 21.059771 -3.284305 -12.816914 
0.555609 0.209659 1.002282 93.395725 0.061098 96.021635 -2.946282 -0.585334 1.400496 0.465397 -4.088117 5.411359 7.051939 23.662069 -28.110625 0.000000 -0.000000 0.000000 1.109650 6.193987 -28.015546 -7.799224 0.853993 -0.998544 4.818433 -15.005453 -11.951705 0.000000 -0.000000 0.000000 -3.070250 -1.650231 3.901488 -0.558307 2.584130 -6.489079 2.139661 -1.822586 1.123912 1.778677 -5.030198 14.359233 6.865225 5.467203 2.782375 -17.338811 7.284632 3.032178 -53.923862 -18.782018 3.327612 22.660554 -38.444671 -5.795004 -3.845543 1.874376 -9.754103 15.325246 -6.618921 -0.196907 64.942607 5.294801 10.754410 -8.456316 4.860770 -3.458507 19.942692 -3.933788 -11.223285 
0.588215 0.203707 0.998724 94.146368 0.524045 95.584386 -2.284785 -1.536003 3.469439 0.942946 -4.884265 6.761204 5.851891 25.448569 -29.005912 0.000000 -0.000000 0.000000 0.819914 8.493678 -28.050809 -7.029006 0.476663 4.482965 4.497040 -15.962824 -12.085692 0.000000 -0.000000 0.000000 -2.728503 -2.172344 3.887673 0.251637 2.661333 -5.620788 2.212919 -1.917906 0.661388 2.260675 -4.590746 14.073115 5.769255 5.033403 2.631644 -17.311892 7.299777 3.998266 -54.442138 -17.381060 3.783764 22.984476 -37.717649 -5.537182 -5.800435 -1.240215 -12.749616 15.515423 -6.657251 -0.342235 64.630375 5.022932 11.057745 -8.762776 4.403758 -3.770063 20.883793 -3.138789 -13.775571 
0.621982 0.196310 0.997846 94.311131 1.614969 95.248579 -1.161567 -2.261684 4.481969 1.638434 -5.083799 10.118059 4.069244 26.063021 -29.579615 0.000000 -0.000000 0.000000 1.781235 10.467315 -26.919493 -7.015406 -0.799520 6.584360 4.886969 -15.737971 -7.855880 0.000000 -0.000000 0.000000 -1.693119 -2.280642 3.901843 0.869027 2.729613 -5.015341 2.335730 -1.740637 -0.008914 2.473264 -4.104448 14.142898 4.965348 4.694949 2.512271 -17.735175 7.441344 3.878582 -55.182413 -15.610488 3.521981 21.953594 -36.113705 -4.154886 -7.149918 -2.527388 -11.003839 15.715885 -6.470600 -0.468722 64.052159 4.502542 10.535676 -8.465564 3.847126 -3.627078 20.255490 -2.152414 -14.962636 
0.656986 0.189287 1.000553 93.586248 2.940475 95.275118 -0.097569 -2.453204 4.051887 2.461254 -4.517937 15.347841 3.263086 26.488505 -27.858850 0.000000 -0.000000 0.000000 3.318760 10.638901 -25.357567 -5.171271 0.047928 7.362095 5.209781 -14.957117 -5.614030 0.000000 -0.000000 0.000000 -0.536750 -1.882937 2.509100 1.682877 2.803957 -3.670434 2.449836 -1.313923 -0.249622 2.440872 -3.670375 13.823992 3.921602 4.680414 3.245449 -18.799692 7.941611 3.024078 -56.039964 -13.368330 3.153593 19.896222 -33.839628 -2.747360 -6.991589 -2.706887 -9.429685 16.482172 -6.114961 -0.363532 62.755949 4.442348 9.843359 -7.750611 3.219470 -3.439768 18.658688 -2.268853 -13.610414 
0.690431 0.183108 1.004820 92.768371 3.927767 95.317728 0.739907 -2.973401 1.673445 2.431301 -3.382956 23.536851 4.472266 27.258100 -23.467585 0.000000 -0.000000 0.000000 4.632061 10.133573 -23.414055 -3.234597 0.594089 7.596402 4.855706 -14.532872 -5.491576 0.000000 -0.000000 0.000000 0.291344 -1.516645 1.497989 2.491014 2.838296 -2.910859 2.411702 -1.030657 -0.445127 2.213681 -3.892311 13.545260 3.016307 5.711699 4.233251 -19.293905 8.789079 3.516079 -57.812096 -11.848348 3.290995 18.735222 -30.439697 -2.340189 -6.391031 1.150626 -9.526334 16.929638 -6.180812 -0.038487 62.049302 5.172247 10.117478 -7.312641 2.340546 -3.323411 17.683681 -3.816832 -11.825206 
0.723664 0.176428 1.009567 91.502207 4.996824 94.174182 1.927317 -2.886815 -0.375483 3.072729 -0.008382 31.853053 5.230237 27.540309 -16.017096 0.000000 -0.000000 0.000000 6.365820 11.462434 -19.107681 -2.584393 -0.443715 6.472171 3.794958 -12.640075 -6.876702 0.000000 -0.000000 0.000000 1.134382 -0.676789 2.215835 3.077431 2.720546 -2.502699 2.485119 -0.454360 -0.815927 2.007710 -3.443510 13.819853 2.403454 6.093449 4.711085 -19.182045 8.543687 4.585605 -60.289743 -10.052130 3.200236 18.546551 -26.620134 -3.272045 -7.343760 2.529677 -9.141627 16.558984 -5.740672 0.125311 62.276494 5.345910 10.061594 -7.019207 2.142932 -2.776806 17.729011 -4.828575 -12.373896 
0.752992 0.170524 1.012525 90.534863 5.682345 93.795274 3.105460 -2.532286 -4.279358 4.030890 2.903144 39.989853 6.390340 27.885110 -11.240597 0.000000 -0.000000 0.000000 8.483136 11.098179 -15.634541 -2.964904 0.098316 4.694395 3.023741 -11.246466 -7.371060 0.000000 -0.000000 0.000000 1.817608 0.126379 4.696771 2.918294 2.836636 -5.233572 2.921721 0.088390 -0.739224 1.102257 -3.825010 13.867443 2.482745 7.100436 5.185459 -18.482326 8.887232 5.029319 -63.149679 -8.207164 2.375144 17.062228 -22.776147 -2.286185 -8.999202 3.863138 -10.668055 15.270501 -5.717034 0.351897 63.242687 4.973978 9.323831 -6.695235 3.144711 -1.311126 17.752566 -4.860549 -12.896691 
0.782642 0.165898 1.014143 90.223636 5.739051 93.470824 3.692169 -0.837361 -8.080281 4.126456 3.159423 45.901063 6.604693 25.567529 -12.945979 0.000000 -0.000000 0.000000 10.064817 9.149768 -11.882684 -3.666101 1.842012 2.257989 2.703396 -10.329310 -7.696254 0.000000 -0.000000 0.000000 1.786759 1.158348 4.885245 3.089459 2.390232 -4.987986 3.189402 0.272706 -0.405744 0.681888 -4.221912 13.318594 2.515728 7.165375 5.113532 -18.889314 8.993991 4.737167 -64.632850 -7.409013 1.252406 15.212169 -18.237190 -1.767234 -10.234398 5.835827 -10.557416 15.199166 -5.311367 0.075056 62.963656 5.493548 9.135731 -6.492499 4.001441 -0.622146 18.404185 -5.435692 -13.259311 
0.810397 0.161865 1.015316 90.074365 5.405146 93.489248 3.615144 1.093131 -12.414859 4.826158 3.667201 49.502625 4.427297 21.677475 -15.962105 0.000000 -0.000000 0.000000 10.882544 7.637078 -8.936513 -4.644137 2.138554 0.154567 3.357730 -9.144728 -8.112519 0.000000 -0.000000 0.000000 1.645267 2.186497 6.320466 2.748476 2.108020 -6.279089 3.379995 0.452293 -0.465075 0.468994 -4.395891 13.719489 2.577629 7.406937 4.610814 -19.479463 8.841982 4.711354 -65.176047 -6.351852 0.091818 13.501435 -13.975300 -0.352706 -12.996195 5.907023 -9.296063 14.953745 -5.172941 0.125114 62.747395 5.284343 8.861208 -6.227712 6.296425 0.780912 18.637459 -5.166958 -14.389219 
0.837174 0.158537 1.016035 89.395923 4.863271 93.897641 3.399189 1.324802 -16.850141 4.129153 5.568315 50.601630 4.447717 21.460477 -18.338855 0.000000 -0.000000 0.000000 11.117563 6.813425 -6.753481 -5.264082 3.166754 -1.432383 3.314591 -9.080606 -8.313734 0.000000 -0.000000 0.000000 1.343653 3.467190 6.202667 2.452388 1.940051 -6.705840 3.218953 0.720227 0.167111 0.335420 -4.712679 13.732493 3.010606 7.204189 4.211459 -20.027452 8.474907 4.973602 -65.495074 -5.369221 -0.351402 12.628041 -11.341255 0.964798 -14.345553 6.595295 -9.509549 14.787138 -5.013707 0.103574 62.696609 5.769902 8.919017 -6.416502 8.197970 2.165087 19.049238 -4.893440 -16.076921 
0.861820 0.156208 1.017337 88.631273 4.501791 94.050847 3.344863 1.345185 -20.823760 3.714177 7.822390 49.431926 4.644900 22.585485 -21.276467 0.000000 -0.000000 0.000000 11.244127 6.716310 -5.388238 -5.557787 3.373876 -1.265827 3.323548 -8.752474 -9.096383 0.000000 -0.000000 0.000000 1.204410 4.238623 7.531634 1.955196 1.987185 -8.271618 3.272849 1.009020 0.159416 0.372697 -4.464525 13.434897 2.540136 8.550750 4.409689 -20.350505 8.745910 5.315157 -65.787814 -3.916174 -1.285785 11.938890 -9.703446 3.370191 -16.213061 6.381983 -8.797073 14.189595 -4.903030 0.817418 62.894177 6.569804 8.754352 -6.689378 10.032653 3.396556 18.997320 -4.157486 -17.039424 
